<?xml version="1.0" standalone="no"?>
<!DOCTYPE svg PUBLIC "-//W3C//DTD SVG 20010904//EN"
 "http://www.w3.org/TR/2001/REC-SVG-20010904/DTD/svg10.dtd">
<svg version="1.0" xmlns="http://www.w3.org/2000/svg"
 width="5088.000000pt" height="5088.000000pt" viewBox="0 0 5088.000000 5088.000000"
 preserveAspectRatio="xMidYMid meet">
<metadata>
Created by potrace 1.14, written by Peter Selinger 2001-2017
</metadata>
<g transform="translate(0.000000,5088.000000) scale(0.100000,-0.100000)"
fill="#000000" stroke="none">
<path d="M15387 29593 c-3 -2 -20 -6 -39 -8 -18 -2 -33 -4 -33 -5 0 -1 -7 -3
-15 -5 -89 -20 -210 -88 -285 -162 -68 -65 -91 -96 -129 -171 -62 -122 -58 22
-61 -2337 -1 -1182 -5 -2161 -8 -2175 -3 -14 -8 -52 -12 -85 -12 -118 -24
-185 -38 -210 -6 -11 -10 -21 -9 -23 4 -4 -11 -56 -25 -89 -7 -18 -13 -35 -13
-38 1 -9 -51 -99 -76 -132 -130 -172 -311 -246 -599 -245 -118 1 -180 5 -180
12 0 1 -19 3 -42 5 -23 2 -68 9 -100 14 -132 23 -241 28 -330 16 -53 -7 -197
-54 -201 -67 -2 -4 -8 -8 -14 -8 -20 0 -105 -66 -165 -128 -54 -55 -118 -159
-127 -205 -2 -6 -8 -32 -15 -56 -20 -69 -16 -258 5 -293 3 -4 7 -17 9 -29 11
-56 64 -145 125 -209 101 -105 311 -199 505 -225 28 -4 61 -9 75 -11 110 -21
770 -24 770 -4 0 3 22 6 49 8 28 2 58 4 68 6 10 2 52 9 93 16 41 7 113 21 160
32 47 11 92 21 100 23 28 6 225 73 262 89 21 9 39 16 40 15 8 -4 176 93 263
150 106 71 269 224 347 326 86 114 159 249 239 440 13 32 59 175 62 193 1 9 6
23 10 30 5 6 6 12 3 12 -3 0 1 21 9 48 8 26 17 62 20 80 8 50 14 85 20 112 5
24 8 47 21 150 3 25 7 56 9 68 7 45 18 227 19 314 1 49 3 88 6 88 4 0 4 117
-1 130 0 3 0 16 1 30 6 66 4 120 -3 120 -5 0 -5 4 -2 10 5 9 10 183 5 205 -1
6 -1 15 0 20 1 6 1 37 0 70 0 33 -1 67 -1 75 2 92 2 147 1 155 -1 6 -1 15 0
20 1 6 1 33 1 60 -1 28 -1 77 0 110 0 33 0 66 0 73 -2 29 -1 60 1 110 2 28 0
52 -4 52 -3 0 -4 8 -2 18 7 25 10 322 4 322 -3 0 -3 32 0 70 3 39 2 70 -1 70
-3 0 -3 19 1 43 3 23 3 56 -1 74 -3 18 -4 34 -2 37 3 3 4 47 4 98 -2 118 -3
104 1 171 2 31 -1 57 -5 57 -5 0 -6 4 -3 9 4 5 6 54 6 108 0 54 0 107 0 118 0
11 0 47 -1 80 0 33 0 67 0 75 2 76 2 137 1 145 -1 6 -1 15 0 20 1 6 1 33 1 60
-1 28 -1 68 0 90 0 22 0 46 0 53 -2 27 -2 50 -1 132 1 47 1 90 0 95 -1 6 -2
15 -1 20 1 6 2 100 1 210 -1 238 -1 210 0 315 1 47 1 90 0 95 -1 6 -2 12 -1
15 7 18 4 120 -2 120 -5 0 -6 4 -3 9 3 5 6 28 6 52 3 184 -50 319 -173 442
-76 76 -125 117 -141 117 -5 0 -17 7 -27 16 -9 8 -23 17 -31 18 -7 2 -26 9
-43 16 -72 30 -137 42 -242 45 -61 2 -114 1 -116 -2z"/>
<path d="M20799 29596 c-2 -2 -22 -6 -44 -10 -81 -11 -181 -45 -223 -74 -15
-10 -35 -22 -44 -25 -10 -4 -18 -11 -18 -17 0 -5 -6 -10 -12 -10 -16 0 -92
-79 -145 -150 -46 -61 -121 -205 -139 -265 -5 -17 -34 -99 -41 -115 -3 -8 -7
-17 -8 -20 0 -3 -11 -34 -23 -70 -12 -36 -22 -69 -23 -75 -1 -5 -6 -19 -12
-30 -6 -11 -12 -25 -13 -32 -2 -11 -78 -240 -91 -273 -4 -8 -7 -17 -8 -20 -7
-30 -30 -88 -38 -97 -5 -7 -7 -13 -3 -13 3 0 0 -16 -8 -35 -8 -19 -12 -35 -9
-35 3 0 1 -6 -5 -12 -5 -7 -17 -35 -25 -63 -8 -27 -50 -149 -92 -270 -42 -121
-78 -228 -80 -237 -2 -9 -8 -25 -13 -35 -6 -10 -10 -20 -10 -23 -1 -6 -8 -29
-18 -55 -4 -11 -8 -27 -10 -36 -2 -9 -9 -29 -16 -45 -6 -16 -13 -33 -13 -39
-2 -11 -8 -28 -36 -99 -10 -27 -19 -56 -19 -66 0 -9 -3 -20 -7 -24 -4 -3 -8
-12 -9 -19 -2 -7 -21 -63 -43 -125 -22 -62 -41 -114 -41 -117 -1 -6 -1 -7 -35
-105 -15 -41 -28 -79 -29 -85 -3 -10 -8 -23 -29 -80 -6 -16 -12 -34 -13 -40
-3 -15 -154 -457 -164 -480 -5 -11 -18 -51 -31 -90 -12 -38 -26 -76 -32 -82
-5 -7 -7 -13 -4 -13 3 0 -8 -37 -24 -82 -17 -46 -32 -90 -34 -98 -2 -8 -30
-92 -63 -187 -33 -94 -57 -174 -54 -177 3 -3 1 -6 -5 -6 -6 0 -13 -14 -17 -30
-3 -17 -33 -108 -67 -203 -33 -94 -62 -179 -64 -187 -2 -8 -14 -45 -28 -82
-14 -36 -23 -69 -20 -72 4 -3 2 -6 -4 -6 -5 0 -10 -6 -10 -12 -1 -21 -64 -202
-75 -215 -6 -7 -8 -13 -5 -13 5 0 -22 -88 -40 -130 -3 -8 -7 -22 -9 -31 -2 -9
-9 -29 -15 -45 -7 -16 -13 -31 -14 -34 -6 -23 -68 -205 -135 -400 -45 -129
-83 -239 -84 -245 -2 -5 -6 -17 -9 -25 -21 -58 -70 -198 -72 -210 -5 -28 -17
-141 -19 -183 -2 -37 1 -60 18 -152 6 -31 44 -123 63 -153 59 -91 152 -174
247 -221 73 -36 101 -48 124 -52 4 -1 17 -5 28 -10 38 -14 107 -22 189 -22
109 -1 174 13 265 56 25 11 47 21 50 22 9 1 55 28 60 34 3 3 31 26 63 50 51
39 137 129 137 144 0 4 10 21 23 39 22 33 55 124 97 268 12 41 32 109 45 150
13 41 37 120 53 175 17 55 45 147 62 205 18 58 34 112 35 120 2 8 13 44 24 80
11 36 36 121 55 190 20 69 40 132 45 140 5 9 12 31 16 50 4 19 16 63 27 98 11
34 21 68 22 75 2 6 6 19 9 27 3 8 12 35 18 60 7 25 13 47 14 50 1 3 8 25 15
50 8 25 15 50 16 55 0 6 4 17 7 25 9 23 31 94 33 106 1 6 14 51 29 99 15 49
29 96 31 105 1 8 21 73 43 145 22 71 38 131 36 134 -3 2 -1 9 4 15 9 10 45
127 56 181 3 11 9 31 14 45 5 14 12 34 16 45 4 11 9 27 10 35 2 14 30 116 41
150 3 8 5 16 5 17 0 2 6 21 14 44 9 23 17 51 20 63 2 12 21 75 40 141 20 66
38 131 41 144 3 14 7 28 9 31 6 10 188 640 198 685 2 6 6 16 10 23 5 6 6 12 4
12 -3 0 2 21 10 48 17 53 31 105 39 141 3 13 9 32 15 43 5 10 7 18 4 18 -3 0
1 15 9 34 8 19 12 37 9 40 -3 2 -1 11 3 18 5 7 10 22 11 33 2 11 7 31 12 45 5
14 19 68 32 120 23 103 38 140 39 105 2 -30 6 -45 55 -230 25 -93 48 -177 50
-185 2 -8 4 -15 5 -15 1 0 3 -9 5 -20 2 -11 16 -60 30 -110 15 -49 29 -100 31
-112 2 -12 9 -35 15 -50 6 -16 12 -35 14 -43 2 -8 10 -42 19 -75 9 -33 19 -68
21 -78 2 -9 6 -21 9 -25 3 -5 8 -22 11 -38 6 -31 9 -41 17 -64 3 -8 16 -51 28
-95 12 -44 25 -87 28 -95 8 -23 8 -23 17 -65 4 -22 12 -48 17 -58 5 -10 11
-28 13 -39 3 -11 12 -46 22 -77 9 -31 18 -60 18 -66 2 -10 28 -99 66 -222 10
-34 20 -70 22 -80 1 -10 5 -22 8 -28 5 -9 17 -48 24 -80 2 -5 13 -43 25 -84
12 -41 23 -81 25 -90 3 -14 21 -73 54 -179 5 -18 11 -36 12 -40 1 -4 3 -11 5
-17 19 -62 57 -193 59 -205 2 -8 4 -16 5 -17 2 -2 3 -6 4 -10 8 -31 33 -116
63 -213 19 -63 36 -122 38 -130 2 -8 13 -46 25 -85 12 -38 23 -77 25 -85 1 -8
10 -37 19 -65 22 -71 87 -287 91 -305 2 -8 15 -53 30 -100 14 -47 28 -96 31
-109 3 -14 7 -28 10 -33 3 -4 7 -16 9 -25 2 -10 20 -72 40 -138 20 -66 38
-127 40 -135 1 -8 5 -22 8 -30 3 -8 11 -33 17 -55 6 -22 14 -47 17 -55 3 -8 7
-20 9 -27 1 -6 16 -58 33 -115 17 -57 43 -141 57 -188 36 -122 50 -155 90
-217 40 -63 152 -178 183 -188 12 -3 21 -10 21 -14 0 -13 157 -86 225 -106 63
-18 206 -25 285 -13 194 28 374 137 467 283 33 52 65 119 68 145 2 8 6 31 11
50 9 42 11 187 2 250 -3 25 -14 70 -24 100 -10 30 -18 57 -19 60 -1 3 -5 14
-9 25 -22 58 -36 95 -35 98 0 1 -2 9 -5 17 -3 8 -42 123 -86 255 -45 132 -85
249 -90 260 -7 16 -30 86 -35 105 -1 3 -4 12 -8 20 -3 8 -18 51 -33 95 -14 44
-44 132 -66 195 -22 63 -41 120 -42 125 -1 6 -7 24 -13 40 -6 17 -15 39 -19
50 -4 11 -8 22 -9 25 -5 23 -68 209 -76 225 -5 11 -18 49 -30 85 -11 36 -38
117 -60 180 -45 128 -46 133 -47 140 0 3 -10 30 -22 60 -12 30 -23 60 -24 65
-1 6 -5 16 -9 23 -5 6 -6 12 -3 12 3 0 -2 17 -10 37 -9 20 -18 44 -19 52 -4
15 -79 238 -92 271 -38 99 -160 470 -155 474 3 3 1 6 -4 6 -5 0 -15 21 -23 48
-7 26 -17 56 -22 67 -4 11 -18 49 -29 85 -12 36 -24 72 -27 80 -3 8 -7 20 -9
25 -1 6 -21 64 -44 130 -23 66 -43 125 -44 130 -3 12 -14 42 -26 70 -5 11 -11
29 -13 40 -6 21 -103 310 -114 335 -3 8 -7 17 -8 20 -1 3 -4 12 -8 20 -12 33
-118 354 -118 357 0 2 -8 23 -19 48 -11 25 -17 45 -13 45 3 0 1 6 -4 13 -5 6
-15 32 -22 57 -8 25 -22 68 -32 95 -29 80 -32 89 -34 100 -2 6 -15 44 -30 85
-15 41 -29 84 -32 95 -2 11 -8 29 -13 40 -10 25 -23 58 -25 65 -2 10 -48 146
-86 260 -22 63 -44 123 -49 132 -6 10 -10 22 -10 28 0 11 -52 129 -80 181 -11
20 -26 48 -33 61 -23 44 -105 143 -147 178 -24 19 -48 40 -54 45 -11 11 -132
71 -171 86 -51 20 -141 32 -256 35 -69 2 -128 2 -130 0z"/>
<path d="M26270 29589 c-19 -5 -48 -11 -64 -14 -15 -3 -45 -13 -65 -21 -20 -9
-41 -17 -48 -18 -19 -3 -155 -92 -183 -119 -14 -14 -36 -39 -50 -57 -14 -18
-31 -38 -38 -46 -7 -8 -10 -14 -5 -14 4 0 4 -4 -2 -8 -33 -24 -82 -165 -91
-262 -2 -19 -5 -50 -7 -67 -2 -18 -1 -33 2 -33 3 0 6 -22 6 -49 0 -27 -3 -47
-6 -45 -3 2 -3 -14 1 -35 4 -20 3 -47 -1 -59 -5 -12 -4 -24 1 -27 5 -3 5 -18
0 -35 -5 -19 -5 -28 1 -25 5 4 5 -4 -1 -19 -5 -14 -6 -26 -2 -26 4 0 7 -22 7
-49 0 -27 -3 -47 -6 -45 -3 2 -3 -14 1 -35 4 -20 3 -47 -1 -59 -5 -12 -4 -24
1 -27 5 -3 5 -18 0 -35 -5 -19 -5 -28 1 -25 5 4 5 -4 -1 -19 -5 -14 -6 -26 -2
-26 4 0 7 -22 7 -49 0 -27 -3 -47 -6 -45 -3 2 -3 -14 1 -35 4 -20 3 -47 -1
-59 -5 -12 -4 -24 1 -27 5 -3 5 -18 0 -35 -5 -19 -5 -28 1 -25 5 4 5 -4 -1
-19 -5 -14 -6 -26 -2 -26 4 0 7 -22 7 -49 0 -27 -3 -47 -6 -45 -3 2 -3 -14 1
-35 4 -20 3 -47 -1 -59 -5 -12 -4 -24 1 -27 5 -3 5 -18 0 -35 -5 -19 -5 -28 1
-25 5 4 5 -4 -1 -19 -5 -14 -6 -26 -2 -26 4 0 7 -22 7 -49 0 -27 -3 -47 -6
-45 -3 2 -3 -14 1 -35 4 -20 3 -47 -1 -59 -5 -12 -4 -24 1 -27 5 -3 5 -18 0
-35 -5 -19 -5 -28 1 -25 5 4 5 -4 -1 -19 -5 -14 -6 -26 -2 -26 4 0 7 -22 7
-49 0 -27 -3 -47 -6 -45 -3 2 -3 -14 1 -35 4 -20 3 -47 -1 -59 -5 -12 -4 -24
1 -27 5 -3 5 -18 0 -35 -5 -19 -5 -28 1 -25 5 4 5 -4 -1 -19 -5 -14 -6 -26 -2
-26 4 0 7 -22 7 -49 0 -27 -3 -47 -6 -45 -3 2 -3 -14 1 -35 4 -20 3 -47 -1
-59 -5 -12 -4 -24 1 -27 5 -3 5 -18 0 -35 -5 -19 -5 -28 1 -25 5 4 5 -4 -1
-19 -5 -14 -6 -26 -2 -26 4 0 7 -22 7 -49 0 -27 -3 -47 -6 -45 -3 2 -3 -14 1
-35 4 -20 3 -47 -1 -59 -5 -12 -4 -24 1 -27 5 -3 5 -18 0 -35 -5 -19 -5 -28 1
-25 5 4 5 -4 -1 -19 -5 -14 -6 -26 -2 -26 4 0 7 -22 7 -49 0 -27 -3 -47 -6
-45 -3 2 -3 -14 1 -35 4 -20 3 -47 -1 -59 -5 -12 -4 -24 1 -27 5 -3 5 -18 0
-35 -5 -19 -5 -28 1 -25 5 4 5 -4 -1 -19 -5 -14 -6 -26 -2 -26 4 0 7 -22 7
-49 0 -27 -3 -47 -6 -45 -3 2 -3 -14 1 -35 4 -20 3 -47 -1 -59 -5 -12 -4 -24
1 -27 5 -3 5 -18 0 -35 -5 -19 -5 -28 1 -25 5 4 5 -4 -1 -19 -5 -14 -6 -26 -2
-26 4 0 7 -22 7 -49 0 -27 -3 -47 -6 -45 -3 2 -3 -14 1 -35 4 -20 3 -47 -1
-59 -5 -12 -4 -24 1 -27 5 -3 5 -18 0 -35 -5 -19 -5 -28 1 -25 5 4 5 -4 -1
-19 -5 -14 -6 -26 -2 -26 4 0 7 -22 7 -49 0 -27 -2 -48 -6 -46 -3 2 -2 -18 1
-45 3 -26 3 -57 -1 -67 -4 -11 -4 -26 1 -33 4 -7 4 -26 0 -41 -5 -16 -5 -31 0
-34 8 -5 5 -43 -5 -72 -2 -7 -1 -13 3 -13 8 0 6 -85 -2 -106 -3 -8 -1 -14 4
-14 6 0 6 -9 0 -24 -5 -13 -6 -26 -3 -30 7 -7 7 -111 0 -123 -3 -5 -2 -15 3
-22 4 -8 4 -27 0 -42 -5 -16 -5 -31 0 -34 8 -5 5 -43 -5 -72 -2 -7 -1 -13 3
-13 8 0 6 -85 -2 -106 -3 -8 -1 -14 4 -14 6 0 6 -9 0 -24 -5 -13 -6 -26 -3
-30 7 -7 7 -111 0 -123 -3 -5 -2 -15 3 -22 4 -8 4 -27 0 -42 -5 -16 -5 -31 0
-34 8 -5 5 -43 -5 -72 -2 -7 -1 -13 3 -13 8 0 6 -85 -2 -106 -3 -8 -1 -14 4
-14 6 0 6 -9 0 -24 -5 -13 -6 -26 -3 -30 7 -7 7 -111 0 -123 -3 -5 -2 -15 3
-22 4 -8 4 -27 0 -42 -5 -16 -5 -31 0 -34 8 -5 5 -43 -5 -72 -2 -7 -1 -13 3
-13 8 0 6 -85 -2 -106 -3 -8 -1 -14 4 -14 6 0 6 -9 0 -24 -5 -13 -7 -26 -4
-28 2 -3 6 -52 8 -110 4 -116 30 -198 91 -293 226 -348 746 -391 1061 -88 93
89 156 211 172 330 4 32 7 795 7 1696 0 900 2 1637 5 1637 3 0 33 -58 68 -128
130 -263 351 -694 364 -709 7 -9 12 -19 12 -22 -1 -3 21 -51 49 -106 29 -55
58 -116 67 -135 8 -19 19 -42 25 -50 9 -14 73 -139 273 -535 41 -82 74 -152
73 -154 -2 -2 1 -7 6 -10 4 -3 33 -55 63 -116 30 -60 57 -112 60 -115 3 -3 16
-29 29 -57 14 -29 28 -53 33 -53 4 0 8 -4 8 -10 0 -22 135 -160 158 -160 6 0
12 -4 12 -9 0 -12 149 -78 202 -90 73 -16 130 -23 188 -24 64 0 179 11 191 19
5 3 18 7 29 10 11 2 28 6 39 8 76 17 207 102 274 177 69 79 78 89 71 89 -3 0
3 12 13 28 11 15 46 81 80 147 33 66 147 291 254 500 106 209 220 434 252 500
33 66 64 123 69 126 6 3 9 9 8 13 -1 8 118 246 132 264 6 6 7 12 3 12 -4 0 -3
6 3 13 6 6 76 142 156 300 117 232 146 282 147 255 0 -18 1 -778 3 -1688 l2
-1655 23 -65 c13 -36 40 -90 59 -120 39 -62 166 -190 188 -190 8 0 14 -4 14
-10 0 -5 7 -10 15 -10 8 0 15 -4 15 -9 0 -10 27 -21 44 -20 5 0 12 -3 15 -8 8
-10 59 -30 131 -49 59 -17 206 -23 280 -12 64 9 202 58 220 77 3 4 18 13 34
22 82 46 168 137 223 236 35 62 67 158 58 173 -3 5 -2 11 3 14 6 4 8 5771 2
5826 -6 45 -37 133 -69 195 -42 83 -149 194 -233 243 -50 30 -165 75 -222 89
-44 10 -263 12 -311 2 -27 -5 -63 -12 -80 -15 -44 -8 -153 -53 -204 -86 -86
-54 -161 -145 -231 -279 -35 -68 -65 -126 -65 -129 0 -3 -7 -16 -15 -30 -44
-79 -326 -650 -321 -650 3 0 1 -4 -5 -8 -5 -4 -50 -88 -99 -187 -49 -99 -93
-183 -98 -186 -5 -3 -8 -9 -8 -13 2 -10 -183 -380 -194 -388 -5 -4 -7 -8 -4
-8 4 0 -13 -37 -36 -82 -23 -46 -194 -387 -380 -758 -186 -371 -342 -676 -347
-678 -4 -2 -8 -9 -8 -16 0 -17 -50 -120 -62 -127 -5 -3 -9 -9 -8 -13 3 -11
-22 -66 -30 -66 -3 0 -51 89 -105 198 -54 108 -105 205 -113 215 -8 9 -13 17
-10 17 6 0 -207 427 -221 444 -5 6 -12 23 -16 39 -4 15 -12 27 -18 27 -6 0 -7
3 -4 7 4 3 3 11 -2 17 -9 11 -94 176 -96 186 -1 3 -12 25 -25 50 -79 149 -266
530 -261 530 3 0 1 4 -5 8 -5 4 -113 212 -239 462 -632 1260 -622 1241 -697
1320 -41 43 -112 100 -126 100 -6 0 -12 4 -14 8 -7 18 -139 67 -233 87 -48 11
-277 13 -315 4z"/>
<path d="M36510 29584 c-60 -13 -147 -44 -195 -69 -41 -21 -131 -93 -168 -134
-56 -62 -164 -239 -172 -281 0 -3 -6 -15 -13 -26 -6 -12 -8 -24 -5 -28 3 -3 0
-6 -7 -6 -7 0 -11 -3 -7 -6 3 -3 -3 -29 -15 -58 -11 -28 -21 -55 -22 -61 -4
-18 -28 -90 -35 -100 -3 -5 -6 -14 -7 -20 -2 -11 -12 -41 -80 -240 -25 -71
-47 -137 -50 -145 -3 -8 -5 -15 -4 -15 1 0 -4 -13 -10 -30 -14 -35 -199 -573
-205 -595 -4 -14 -115 -334 -128 -370 -3 -8 -26 -76 -51 -150 -78 -232 -246
-724 -253 -740 -3 -8 -7 -20 -8 -26 -2 -7 -16 -50 -33 -95 -16 -46 -40 -115
-52 -154 -12 -38 -27 -81 -33 -95 -5 -14 -11 -30 -12 -36 -3 -14 -45 -133 -55
-159 -10 -22 -19 -55 -21 -70 0 -5 -6 -19 -12 -30 -6 -11 -12 -25 -13 -31 -4
-26 -118 -350 -127 -361 -5 -7 -7 -13 -4 -13 3 0 -20 -71 -50 -157 -30 -87
-56 -162 -57 -168 -2 -5 -6 -17 -9 -25 -10 -27 -118 -344 -122 -360 -2 -8 -32
-94 -65 -190 -34 -96 -63 -179 -64 -185 -2 -5 -6 -17 -9 -25 -3 -8 -38 -109
-77 -225 -38 -115 -73 -217 -77 -225 -4 -8 -7 -19 -8 -25 -1 -5 -11 -37 -24
-70 -13 -33 -25 -71 -27 -84 -3 -13 -12 -37 -20 -52 -8 -16 -12 -29 -8 -29 4
0 1 -6 -5 -13 -6 -8 -13 -24 -15 -38 -3 -13 -5 -24 -6 -24 -2 0 -8 -22 -23
-90 -11 -54 -14 -206 -4 -245 2 -8 7 -31 11 -50 15 -68 78 -179 135 -237 75
-77 92 -91 187 -141 97 -52 211 -77 344 -74 101 1 140 6 140 15 0 4 3 6 8 5
24 -7 170 62 238 112 97 72 179 168 218 253 16 35 86 253 106 332 4 17 13 42
19 58 6 15 8 27 5 27 -2 0 2 14 11 30 9 17 13 30 11 30 -3 0 2 19 10 43 9 23
17 49 19 57 1 8 10 38 18 65 9 28 27 88 41 135 14 47 37 123 52 170 14 47 27
92 29 100 2 8 13 46 25 84 12 38 23 76 25 85 2 9 10 37 18 64 8 26 12 47 9 47
-4 0 -2 4 5 8 6 4 14 19 17 34 2 15 17 67 31 115 15 48 29 95 30 103 2 8 4 16
5 18 2 1 4 7 5 12 1 6 3 11 5 13 1 1 3 10 5 19 3 19 23 85 32 108 4 8 7 22 8
30 1 8 7 28 13 43 7 15 15 40 18 55 3 15 13 47 21 72 8 25 17 54 19 65 2 11
17 63 33 115 33 107 62 207 61 215 0 3 7 22 15 42 7 21 20 58 26 83 7 25 13
47 14 50 1 3 7 25 14 50 6 25 15 52 18 60 3 8 7 20 8 25 4 15 92 313 108 365
12 40 16 54 17 63 1 1 26 85 56 187 30 102 56 193 59 202 2 9 36 129 75 265
40 136 73 257 76 267 2 11 10 40 18 65 8 25 17 57 21 71 3 14 13 50 21 80 9
30 17 62 19 70 2 8 4 15 5 15 1 0 3 7 5 15 1 8 10 42 19 75 9 33 18 67 20 75
2 8 9 35 16 60 14 53 22 90 23 108 1 25 15 -4 26 -53 20 -88 28 -119 40 -165
28 -103 43 -160 56 -202 8 -27 11 -48 8 -48 -3 0 -1 -6 5 -12 5 -7 13 -26 16
-43 13 -60 16 -72 56 -205 23 -74 43 -144 44 -155 2 -11 6 -27 9 -35 10 -24
39 -123 42 -145 2 -11 11 -41 19 -67 8 -27 12 -48 8 -48 -4 0 -2 -4 5 -8 6 -4
14 -20 17 -37 3 -16 15 -61 26 -100 12 -38 23 -77 25 -85 3 -13 43 -151 65
-223 5 -15 9 -28 9 -30 0 -1 2 -9 5 -17 3 -8 12 -42 21 -75 9 -33 19 -67 22
-75 3 -8 7 -22 9 -30 3 -18 33 -119 41 -140 3 -8 8 -24 10 -35 2 -11 7 -31 12
-45 10 -26 53 -167 57 -185 1 -5 8 -30 15 -55 7 -25 13 -47 14 -50 1 -3 7 -25
15 -50 7 -25 15 -49 16 -55 3 -12 82 -278 94 -317 5 -16 6 -28 3 -28 -3 0 -1
-6 5 -13 6 -7 13 -24 16 -37 3 -14 33 -117 66 -230 34 -113 79 -266 101 -340
22 -74 44 -148 50 -165 14 -45 69 -232 86 -295 8 -30 19 -61 25 -67 6 -7 8
-13 5 -13 -3 0 -1 -15 4 -32 6 -18 12 -40 14 -48 4 -14 23 -74 80 -262 14 -46
28 -92 30 -104 18 -78 70 -217 101 -268 89 -146 256 -268 439 -321 61 -18 201
-24 285 -13 64 8 157 37 212 64 27 14 51 24 54 23 4 0 10 3 13 8 3 4 24 21 46
38 157 116 235 286 229 497 -3 107 -14 159 -62 288 -3 8 -6 17 -7 20 0 3 -12
37 -25 75 -13 39 -24 73 -25 77 0 3 -3 10 -7 14 -5 4 -8 13 -8 20 0 7 -5 25
-12 41 -6 15 -12 33 -14 38 -1 6 -23 71 -49 145 -25 74 -59 173 -75 220 -16
47 -67 198 -115 335 -47 138 -88 257 -90 265 -2 8 -36 107 -75 220 -40 113
-73 210 -74 215 -1 6 -7 24 -13 40 -13 34 -20 58 -21 65 0 4 -14 42 -38 105
-4 11 -8 23 -9 28 -2 4 -3 8 -5 10 -1 1 -3 9 -5 17 -6 22 -56 171 -66 195 -4
11 -15 40 -23 65 -8 25 -63 185 -121 355 -59 171 -108 315 -109 320 -2 6 -6
17 -9 25 -4 8 -20 56 -36 105 -17 50 -57 168 -90 263 -33 94 -57 172 -54 172
3 0 0 6 -6 14 -7 8 -14 25 -16 37 -3 13 -9 33 -14 44 -5 11 -30 81 -55 155
-25 74 -71 207 -101 295 -31 88 -60 174 -65 190 -8 30 -26 81 -41 120 -4 11
-24 70 -44 130 -20 61 -39 117 -42 125 -4 8 -7 17 -7 20 -1 3 -4 10 -7 15 -4
6 -10 24 -14 40 -12 45 -12 44 -45 135 -17 47 -32 92 -34 100 -2 8 -16 49 -31
90 -14 41 -44 127 -65 190 -81 238 -92 268 -147 380 -31 63 -59 117 -62 120
-3 3 -19 23 -35 44 -61 81 -181 186 -213 186 -7 0 -13 5 -13 10 0 6 -8 10 -18
10 -10 0 -22 4 -27 9 -6 5 -44 19 -85 31 -95 28 -320 35 -420 14z"/>
<path d="M43458 29595 c-2 -3 -40 -6 -84 -9 -43 -2 -79 -5 -79 -6 0 -1 -18 -3
-40 -6 -22 -2 -80 -11 -130 -20 -150 -27 -160 -29 -215 -45 -25 -7 -51 -14
-58 -15 -43 -8 -238 -78 -244 -88 -4 -6 -8 -7 -8 -2 0 4 -11 1 -25 -8 -14 -9
-25 -14 -25 -11 0 11 -262 -133 -268 -147 -2 -4 -8 -8 -13 -8 -9 0 -56 -31
-85 -55 -7 -5 -27 -21 -45 -35 -96 -72 -282 -261 -313 -318 -5 -10 -12 -19
-15 -22 -6 -4 -53 -78 -116 -180 -70 -115 -185 -448 -200 -585 -3 -22 -7 -51
-10 -65 -20 -99 -27 -482 -11 -605 4 -33 9 -76 11 -95 5 -45 12 -80 31 -158 9
-35 17 -68 18 -75 3 -14 5 -17 46 -132 38 -104 110 -255 122 -255 4 0 8 -5 8
-11 0 -7 16 -34 35 -60 19 -27 35 -51 35 -53 0 -19 221 -241 295 -296 33 -25
62 -48 65 -51 11 -13 150 -99 159 -99 6 0 11 -3 11 -7 0 -5 10 -13 23 -19 12
-6 67 -34 122 -61 126 -64 163 -80 305 -136 92 -36 453 -161 495 -171 21 -5
101 -29 115 -34 8 -3 17 -6 20 -7 3 -1 12 -4 20 -7 8 -3 53 -18 100 -33 47
-16 96 -33 110 -38 14 -6 28 -11 33 -12 4 -2 9 -4 12 -5 3 -1 8 -3 13 -5 4 -1
14 -4 22 -7 76 -28 116 -42 120 -43 6 0 164 -62 195 -75 11 -5 50 -22 86 -38
91 -40 177 -100 232 -162 44 -49 113 -173 122 -220 2 -12 6 -29 9 -38 13 -43
19 -107 19 -222 0 -149 -1 -154 -25 -254 -82 -329 -348 -520 -783 -563 -127
-12 -339 -6 -475 13 -124 17 -304 58 -400 91 -25 8 -49 16 -55 17 -12 3 -84
25 -105 33 -8 3 -19 7 -25 9 -5 1 -69 23 -141 48 -154 53 -236 73 -326 80 -15
1 -30 5 -34 8 -3 4 -11 5 -17 3 -7 -2 -39 -6 -72 -10 -88 -8 -185 -32 -185
-46 0 -3 -6 -6 -13 -6 -38 0 -247 -162 -247 -191 0 -5 -7 -15 -16 -23 -18 -15
-81 -136 -88 -171 -3 -12 -10 -40 -15 -61 -16 -65 -2 -234 22 -264 5 -7 7 -13
3 -13 -3 0 5 -18 19 -40 14 -22 25 -43 25 -47 0 -11 81 -105 120 -139 51 -45
123 -100 151 -114 13 -7 26 -16 29 -19 11 -13 144 -81 166 -85 7 -1 18 -6 25
-12 48 -36 465 -165 611 -189 18 -3 67 -12 108 -20 41 -7 95 -17 120 -21 25
-3 52 -8 61 -9 14 -3 83 -11 169 -20 223 -25 656 -25 780 -1 14 3 50 8 80 10
46 4 216 36 285 53 11 3 31 7 45 10 14 2 32 7 40 10 8 4 18 7 23 8 4 2 8 3 10
5 1 1 10 3 19 5 29 5 121 36 155 51 17 8 33 14 36 14 3 0 18 5 34 12 15 6 30
12 33 13 64 21 303 145 320 165 3 3 26 18 52 33 26 15 53 33 60 40 7 7 26 22
42 32 76 50 356 326 356 351 0 3 6 12 13 19 27 31 37 45 85 122 57 90 132 236
138 266 2 11 9 24 15 27 6 4 9 9 8 11 -2 2 8 38 23 79 26 76 57 179 64 215 2
11 9 44 15 73 6 30 12 71 14 92 2 21 5 46 9 56 6 21 15 162 16 264 2 139 -15
363 -34 445 -2 6 -6 28 -10 50 -4 22 -12 54 -17 70 -23 81 -52 171 -58 180 -3
6 -6 15 -7 21 -1 7 -21 52 -45 100 -98 199 -239 376 -406 511 -27 21 -50 40
-53 43 -14 16 -140 100 -148 100 -6 0 -12 4 -14 9 -7 20 -364 204 -395 204 -7
0 -13 4 -13 8 0 3 -8 9 -17 12 -17 5 -270 100 -303 114 -8 3 -20 7 -26 8 -15
4 -234 76 -259 86 -11 4 -38 13 -60 19 -22 6 -47 14 -55 17 -8 3 -20 7 -26 8
-88 20 -402 127 -458 157 -10 5 -26 11 -35 13 -28 5 -304 143 -336 167 -74 57
-182 180 -191 218 0 3 -6 19 -14 35 -18 44 -40 115 -34 115 3 0 0 9 -6 20 -27
50 -16 313 18 425 35 117 139 255 242 321 54 35 171 88 220 100 50 11 50 11
53 14 6 4 73 16 152 27 76 10 361 9 439 -1 63 -9 91 -14 91 -16 0 -1 14 -3 30
-6 17 -2 71 -15 120 -29 50 -14 98 -27 107 -29 9 -3 26 -10 37 -16 12 -6 21
-8 21 -4 0 3 6 2 13 -3 6 -6 53 -22 102 -37 50 -15 101 -31 115 -36 34 -13
138 -40 180 -48 85 -15 295 -5 360 18 39 13 55 17 60 17 10 -1 123 65 164 96
82 62 183 214 201 303 38 187 17 316 -76 454 -33 49 -150 170 -165 170 -3 0
-23 12 -43 28 -92 69 -251 141 -450 203 -51 16 -102 29 -112 29 -10 0 -20 4
-23 8 -2 4 -19 9 -37 10 -18 1 -38 7 -44 12 -7 5 -14 8 -16 5 -3 -2 -22 0 -44
6 -22 5 -56 12 -75 15 -19 3 -46 8 -60 10 -30 6 -59 10 -125 18 -27 3 -61 8
-75 11 -14 3 -56 8 -95 11 -38 3 -90 8 -115 10 -64 6 -547 14 -552 9z"/>
<path d="M685 29513 c-55 -5 -195 -36 -201 -44 -3 -5 -12 -9 -20 -9 -16 0
-121 -48 -141 -65 -7 -5 -19 -16 -27 -22 -8 -7 -18 -13 -21 -13 -5 0 -46 -34
-69 -56 -60 -59 -133 -163 -142 -201 -4 -13 -9 -23 -13 -23 -4 0 -8 -6 -9 -12
-1 -7 -10 -44 -21 -83 -20 -69 -20 -111 -18 -2855 l2 -2785 22 -52 c11 -29 19
-53 17 -53 -7 0 67 -131 90 -159 45 -55 124 -128 180 -165 65 -43 181 -95 224
-100 15 -2 45 -8 67 -14 50 -13 -66 -11 955 -12 798 -1 964 2 1080 14 19 2 62
7 95 10 33 4 71 9 85 12 14 3 39 7 55 10 17 2 50 9 75 14 25 5 56 12 70 15 47
9 135 33 205 56 39 12 73 24 78 25 4 1 8 2 10 4 1 1 9 3 18 5 9 1 32 10 50 18
19 9 59 26 89 37 30 12 70 31 88 42 17 11 32 16 32 11 0 -4 4 -3 8 2 4 6 30
21 57 35 28 14 52 28 55 31 3 3 21 14 40 24 18 10 40 24 48 31 7 8 19 14 27
14 7 0 15 3 17 8 2 4 31 27 65 52 147 109 275 235 391 385 34 45 62 86 62 92
0 6 3 13 8 15 11 5 72 103 72 116 0 7 4 12 8 12 5 0 15 18 22 40 7 22 16 40
19 40 6 0 30 51 36 76 2 6 10 27 19 46 10 20 18 45 19 57 1 11 6 21 11 21 5 0
6 3 3 6 -3 4 -1 16 5 28 7 11 13 23 13 26 1 3 11 46 23 95 22 92 32 141 37
185 32 247 24 475 -22 655 -8 33 -17 67 -18 75 -27 117 -147 341 -249 465 -68
82 -201 210 -266 256 -19 13 -39 29 -45 35 -11 13 -135 93 -175 114 -14 7 -27
16 -30 20 -6 8 -258 131 -307 150 -18 7 -33 16 -33 20 0 4 35 25 78 46 42 22
79 41 82 44 8 8 43 29 65 39 11 5 46 28 78 50 32 23 62 41 67 41 4 0 10 3 12
8 2 4 35 33 75 64 142 114 302 296 356 406 12 23 25 42 29 42 4 0 8 8 8 19 0
10 7 24 15 31 8 7 14 18 14 24 -1 6 7 32 18 57 31 68 66 212 80 324 8 71 3
390 -7 390 -1 0 -3 16 -5 35 -6 55 -13 95 -26 142 -6 24 -12 50 -13 58 -1 8
-13 49 -26 90 -13 41 -24 77 -25 80 -1 3 -6 16 -12 30 -22 51 -36 85 -38 90
-8 31 -67 136 -135 239 -30 46 -59 91 -65 100 -5 9 -20 26 -33 38 -13 13 -20
23 -17 23 5 0 -136 151 -160 171 -5 5 -32 29 -60 53 -27 25 -54 46 -58 46 -4
0 -13 5 -20 10 -7 6 -28 24 -47 40 -19 16 -41 30 -47 30 -7 0 -13 3 -13 8 0 4
-21 18 -47 32 -27 13 -50 27 -53 30 -11 12 -172 90 -186 90 -8 0 -14 5 -14 10
0 6 -8 10 -18 10 -10 0 -22 3 -26 8 -4 4 -12 8 -17 8 -5 1 -11 3 -14 4 -3 1
-8 3 -12 5 -5 1 -15 5 -23 8 -23 10 -103 37 -120 42 -8 2 -49 12 -90 23 -103
28 -208 48 -295 57 -27 3 -61 8 -75 11 -14 3 -63 8 -110 11 -84 5 -1837 10
-1895 6z m1910 -1207 c208 -21 359 -106 456 -256 44 -69 66 -117 75 -166 10
-50 11 -54 14 -56 2 -4 7 -30 15 -85 7 -51 7 -173 0 -227 -19 -137 -69 -262
-146 -362 -117 -153 -327 -259 -531 -269 -37 -2 -72 -6 -77 -10 -6 -3 -11 -3
-11 2 0 4 -53 7 -117 5 -65 -1 -122 -3 -128 -3 -5 0 -36 2 -68 3 -32 2 -61 0
-64 -4 -2 -5 -9 -5 -15 -2 -15 9 -191 10 -205 1 -7 -4 -14 -4 -17 1 -6 10 -67
9 -84 -2 -7 -4 -12 -3 -12 1 0 5 -28 7 -62 5 -65 -3 -89 -3 -123 2 -11 1 -27
-1 -36 -6 -9 -4 -19 -4 -23 -1 -3 4 -28 7 -54 7 l-47 1 -1 710 0 710 25 5 c35
7 1163 4 1236 -4z m60 -2659 c11 -3 47 -13 80 -22 185 -48 321 -134 438 -277
39 -47 117 -193 117 -218 0 -9 4 -20 10 -26 5 -5 12 -23 14 -39 3 -17 7 -39 9
-51 18 -75 26 -278 13 -321 -3 -10 -8 -38 -11 -63 -3 -25 -15 -74 -27 -110
-12 -36 -20 -67 -19 -69 2 -2 -1 -7 -6 -10 -4 -3 -19 -28 -33 -54 -36 -68 -80
-120 -165 -193 -29 -24 -55 -44 -59 -44 -3 0 -24 -11 -46 -25 -22 -14 -40 -22
-40 -19 0 4 -6 2 -13 -4 -16 -13 -118 -52 -154 -58 -15 -3 -44 -9 -63 -14 -89
-23 -272 -36 -383 -27 -21 1 -41 -1 -44 -5 -2 -5 -8 -6 -13 -3 -5 3 -29 5 -52
5 -151 -2 -178 -2 -256 3 -19 1 -36 -1 -39 -5 -2 -5 -9 -6 -14 -2 -9 5 -83 8
-104 4 -5 -1 -14 -1 -20 0 -13 2 -87 2 -100 0 -5 -1 -14 -1 -20 0 -5 1 -29 2
-52 1 -24 -1 -49 -1 -55 -1 -7 -1 -30 1 -51 2 -21 2 -43 0 -50 -4 -6 -4 -15
-4 -21 -1 -5 3 -28 7 -50 7 l-41 1 -1 828 0 828 650 -4 c358 -2 660 -6 671
-10z"/>
<path d="M7697 29514 c-1 -1 -29 -4 -62 -7 -33 -3 -71 -8 -85 -12 -14 -3 -36
-8 -49 -11 -36 -7 -201 -85 -201 -95 0 -4 -8 -10 -19 -14 -26 -8 -143 -124
-181 -180 -32 -46 -87 -157 -95 -191 -2 -11 -9 -37 -14 -59 -12 -47 -10 -5593
2 -5640 14 -56 50 -150 64 -166 7 -8 13 -20 13 -25 0 -8 12 -24 61 -81 28 -32
88 -83 99 -83 5 0 10 -4 10 -10 0 -5 6 -10 14 -10 8 0 16 -4 18 -8 4 -9 105
-55 168 -75 69 -23 175 -43 280 -52 99 -9 2712 -8 2762 1 24 4 50 8 58 9 8 0
20 3 25 6 6 4 26 10 45 14 19 4 44 14 55 21 11 8 27 14 37 14 10 0 18 3 18 8
0 4 17 16 38 27 20 11 41 25 45 32 4 7 12 13 18 13 10 0 90 82 127 130 28 37
81 150 87 187 3 18 9 42 13 55 8 22 7 156 -1 188 -2 8 -7 31 -11 50 -10 40
-58 139 -84 172 -99 127 -251 225 -397 258 -46 10 -132 22 -152 21 -7 -1 -21
-1 -30 -1 -130 0 -177 -1 -184 -6 -5 -3 -9 -2 -9 3 0 9 -322 8 -345 -1 -8 -3
-15 -2 -15 2 0 4 -52 7 -115 7 -63 0 -115 -4 -115 -8 0 -5 -5 -5 -10 -2 -10 6
-83 9 -105 5 -5 -1 -14 -1 -20 0 -13 2 -87 2 -100 0 -5 -1 -14 -1 -20 0 -5 1
-28 2 -50 1 -63 -2 -62 -2 -223 1 -83 2 -152 0 -152 -4 0 -4 -6 -5 -13 -2 -24
9 -98 10 -103 2 -3 -5 -10 -6 -15 -2 -13 8 -92 9 -105 2 -5 -4 -15 -3 -22 0
-9 7 -68 7 -98 1 -5 -1 -13 0 -19 1 -13 2 -87 2 -100 0 -5 -1 -12 -1 -15 0 -3
1 -27 2 -55 3 l-50 2 0 775 0 775 940 1 c517 1 956 4 975 8 111 22 169 43 248
93 29 18 54 33 56 33 11 0 107 103 133 142 36 53 69 124 84 180 18 67 19 232
2 286 -8 26 -16 52 -17 57 -7 25 -22 54 -54 105 -94 149 -265 262 -452 298
-14 2 -446 6 -960 7 -514 2 -940 4 -946 4 -7 1 -10 235 -10 766 0 764 0 765
21 766 11 0 481 2 1045 3 564 2 1034 6 1045 9 11 3 22 6 25 7 3 1 9 2 14 1 5
-1 16 1 25 5 9 4 25 9 36 11 11 2 58 22 105 46 64 31 104 60 161 117 41 41 82
90 90 108 7 17 17 32 20 32 6 0 32 77 28 82 -1 2 3 12 9 24 6 12 14 50 17 85
4 35 8 69 10 76 2 6 1 14 -2 17 -3 3 -7 25 -9 48 -7 77 -64 215 -114 273 -48
58 -137 140 -166 155 -16 8 -31 17 -34 21 -6 7 -102 51 -115 53 -5 1 -14 4
-20 7 -5 4 -28 10 -50 14 -22 4 -51 9 -65 12 -21 5 -2688 11 -2693 7z"/>
<path d="M47635 22742 c-1 -2 -20 -5 -41 -8 -89 -11 -144 -30 -237 -82 -77
-43 -196 -150 -226 -202 -52 -90 -65 -117 -81 -169 -23 -76 -21 -226 3 -311 3
-8 8 -30 12 -47 4 -18 11 -33 16 -33 4 0 11 -10 15 -22 11 -35 64 -109 109
-151 63 -61 179 -132 222 -138 5 -1 19 -6 33 -11 90 -37 113 -37 1495 -37
1116 0 1361 2 1415 14 77 16 210 69 221 87 5 7 9 9 9 5 0 -23 170 137 170 161
0 6 4 12 9 12 17 0 72 127 87 203 13 60 15 212 3 237 -1 3 -3 10 -4 15 -3 15
-15 48 -26 67 -5 10 -9 25 -9 33 0 8 -3 15 -7 15 -5 0 -17 19 -28 42 -39 81
-183 209 -290 257 -56 25 -146 52 -155 46 -5 -3 -11 -1 -14 4 -3 4 -16 9 -28
10 -45 3 -2670 6 -2673 3z"/>
</g>
</svg>
